{
.appVersion = "961";
copyright = "Copyright 2017 Google Inc. All Rights Reserved.";
customParameters = (
{
name = glyphOrder;
value = (
.notdef,
NULL,
CR,
space,
u10480,
u10481,
u10482,
u10483,
u10484,
u10485,
u10486,
u10487,
u10488,
u10489,
u1048A,
u1048B,
u1048C,
u1048D,
u1048E,
u1048F,
u10490,
u10491,
u10492,
u10493,
u10494,
u10495,
u10496,
u10497,
u10498,
u10499,
u1049A,
u1049B,
u1049C,
u1049D,
u104A0,
u104A1,
u104A2,
u104A3,
u104A4,
u104A5,
u104A6,
u104A7,
u104A8,
u104A9,
uni00A0
);
},
{
name = description;
value = "Designed by Monotype design team.";
},
{
name = license;
value = "This Font Software is licensed under the SIL Open Font License, Version 1.1. This Font Software is distributed on an \"AS IS\" BASIS, WITHOUT WARRANTIES OR CONDITIONS OF ANY KIND, either express or implied. See the SIL Open Font License for the specific language, permissions and limitations governing your use of this Font Software.";
},
{
name = licenseURL;
value = "http://scripts.sil.org/OFL";
},
{
name = vendorID;
value = GOOG;
},
{
name = unicodeRanges;
value = (
0,
1,
57,
106
);
},
{
name = trademark;
value = "Noto is a trademark of Google Inc.";
},
{
name = "Has WWS Names";
value = 1;
},
{
name = versionString;
value = "Version 2.000";
},
{
name = fsType;
value = (
);
}
);
date = "2017-01-13 20:29:04 +0000";
designer = "Monotype Design Team";
designerURL = "http://www.monotype.com/studio";
disablesAutomaticAlignment = 1;
disablesNiceNames = 1;
familyName = "Noto Sans Osmanya";
fontMaster = (
{
alignmentZones = (
"{1069, 15}",
"{714, 15}",
"{536, 15}",
"{0, -15}",
"{-293, -15}"
);
ascender = 1069;
capHeight = 714;
customParameters = (
{
name = typoAscender;
value = 1069;
},
{
name = typoDescender;
value = -293;
},
{
name = typoLineGap;
value = 0;
},
{
name = winAscent;
value = 1069;
},
{
name = winDescent;
value = 293;
},
{
name = hheaAscender;
value = 1069;
},
{
name = hheaDescender;
value = -293;
},
{
name = hheaLineGap;
value = 0;
},
{
name = underlinePosition;
value = -100;

glyphs = (
{
glyphname = .notdef;
lastChange = "2017-01-13 22:31:24 +0000";
layers = (
{
layerId = UUID0;
paths = (
{
closed = 1;
nodes = (
"450 0 LINE",
"450 714 LINE",
"50 714 LINE",
"50 0 LINE"
);
},
{
closed = 1;
nodes = (
"98 666 LINE",
"402 666 LINE",
"402 48 LINE",
"98 48 LINE"
);
}
);
width = 500;
}
);
},
{
glyphname = u10480;
lastChange = "2017-01-13 22:31:31 +0000";
layers = (
{
layerId = UUID0;
paths = (
{
closed = 1;
nodes = (
"460 -10 OFFCURVE",
"565 112 OFFCURVE",
"565 277 CURVE SMOOTH",
"565 394 OFFCURVE",
"514 491 OFFCURVE",
"409 585 CURVE",
"444 607 OFFCURVE",
"483 631 OFFCURVE",
"528 656 CURVE",
"495 728 LINE",
"439 697 OFFCURVE",
"389 668 OFFCURVE",
"344 639 CURVE",
"305 668 OFFCURVE",
"262 697 OFFCURVE",
"212 728 CURVE",
"165 656 LINE",
"204 631 OFFCURVE",
"238 607 OFFCURVE",
"268 585 CURVE",
"139 482 OFFCURVE",
"39 358 OFFCURVE",
"39 199 CURVE SMOOTH",
"39 76 OFFCURVE",
"120 -10 OFFCURVE",
"276 -10 CURVE SMOOTH"
);
},
{
closed = 1;
nodes = (
"188 68 OFFCURVE",
"134 118 OFFCURVE",
"134 206 CURVE SMOOTH",
"134 351 OFFCURVE",
"226 453 OFFCURVE",
"333 533 CURVE",
"437 443 OFFCURVE",
"470 367 OFFCURVE",
"470 277 CURVE SMOOTH",
"470 153 OFFCURVE",
"412 68 OFFCURVE",
"284 68 CURVE SMOOTH"
);
}
);
width = 633;
}
);
unicode = 10480;
},
{
glyphname = u10481;
lastChange = "2017-01-13 22:31:24 +0000";
layers = (
{
layerId = UUID0;
paths = (
{
closed = 1;
nodes = (
"380 -11 OFFCURVE",
"546 53 OFFCURVE",
"583 271 CURVE",
"614 273 OFFCURVE",
"644 275 OFFCURVE",
"671 276 CURVE",
"683 352 LINE",
"659 351 OFFCURVE",
"627 350 OFFCURVE",
"591 347 CURVE",
"629 714 LINE",
"539 714 LINE",
"520 540 LINE SMOOTH",
"514 487 OFFCURVE",
"492 458 OFFCURVE",
"440 458 CURVE SMOOTH",
"387 458 OFFCURVE",
"375 492 OFFCURVE",
"375 530 CURVE SMOOTH",
"375 541 OFFCURVE",
"376 552 OFFCURVE",
"377 563 CURVE SMOOTH",
"393 714 LINE",
"303 714 LINE",
"285 540 LINE SMOOTH",
"280 487 OFFCURVE",
"252 458 OFFCURVE",
"200 458 CURVE SMOOTH",
"154 458 OFFCURVE",
"138 489 OFFCURVE",
"138 524 CURVE SMOOTH",
"138 529 OFFCURVE",
"141 563 OFFCURVE",
"142 568 CURVE SMOOTH",
"156 714 LINE",
"66 714 LINE",
"50 555 LINE SMOOTH",
"49 544 OFFCURVE",
"49 532 OFFCURVE",
"49 522 CURVE SMOOTH",
"49 418 OFFCURVE",
"110 379 OFFCURVE",
"190 379 CURVE SMOOTH",
"240 379 OFFCURVE",
"282 397 OFFCURVE",
"313 426 CURVE",
"339 396 OFFCURVE",
"377 379 OFFCURVE",
"426 379 CURVE SMOOTH",
"455 379 OFFCURVE",
"482 386 OFFCURVE",
"505 397 CURVE",
"498 337 LINE",
"303 312 OFFCURVE",
"57 251 OFFCURVE",
"57 124 CURVE SMOOTH",
"57 54 OFFCURVE",
"90 -11 OFFCURVE",
"244 -11 CURVE SMOOTH"
);
},
{
closed = 1;
nodes = (
"165 67 OFFCURVE",
"147 88 OFFCURVE",
"147 123 CURVE SMOOTH",
"147 192 OFFCURVE",
"319 238 OFFCURVE",
"487 261 CURVE",
"462 150 OFFCURVE",
"388 67 OFFCURVE",
"245 67 CURVE SMOOTH"
);
}
);
width = 697;
}
);
unicode = 10481;
},
{
glyphname = u10482;
lastChange = "2017-01-13 22:31:24 +0000";
layers = (
{
layerId = UUID0;
paths = (
{
closed = 1;
nodes = (
"615 -12 OFFCURVE",
"660 98 OFFCURVE",
"660 213 CURVE SMOOTH",
"660 226 OFFCURVE",
"659 267 OFFCURVE",
"650 303 CURVE",
"564 282 LINE",
"571 248 OFFCURVE",
"572 215 OFFCURVE",
"572 206 CURVE SMOOTH",
"572 149 OFFCURVE",
"558 66 OFFCURVE",
"479 66 CURVE SMOOTH",
"441 66 OFFCURVE",
"421 92 OFFCURVE",
"421 157 CURVE SMOOTH",
"421 177 OFFCURVE",
"425 212 OFFCURVE",
"429 254 CURVE SMOOTH",
"477 714 LINE",
"387 714 LINE",
"372 566 LINE",
"174 566 LINE SMOOTH",
"89 566 OFFCURVE",
"20 490 OFFCURVE",
"20 412 CURVE SMOOTH",
"20 342 OFFCURVE",
"73 288 OFFCURVE",
"145 288 CURVE SMOOTH",
"231 288 OFFCURVE",
"300 354 OFFCURVE",
"300 442 CURVE SMOOTH",
"300 459 OFFCURVE",
"297 476 OFFCURVE",
"291 491 CURVE",
"364 491 LINE",
"336 232 LINE SMOOTH",
"329 169 OFFCURVE",
"329 162 OFFCURVE",
"329 145 CURVE SMOOTH",
"329 40 OFFCURVE",
"380 -12 OFFCURVE",
"477 -12 CURVE SMOOTH"
);
},
{
closed = 1;
nodes = (
"120 364 OFFCURVE",
"96 388 OFFCURVE",
"96 420 CURVE SMOOTH",
"96 458 OFFCURVE",
"130 490 OFFCURVE",
"167 490 CURVE SMOOTH",
"199 490 OFFCURVE",
"224 466 OFFCURVE",
"224 434 CURVE SMOOTH",
"224 395 OFFCURVE",
"189 364 OFFCURVE",
"153 364 CURVE SMOOTH"
);
}
);
width = 699;
}
);
unicode = 10482;
},
{
glyphname = u10483;
lastChange = "2017-01-13 22:31:24 +0000";
layers = (
{
layerId = UUID0;
paths = (
{
closed = 1;
nodes = (
"158 0 LINE",
"233 714 LINE",
"143 714 LINE",
"68 0 LINE"
);
}
);
width = 301;
}
);
unicode = 10483;
},
{
glyphname = u10484;
lastChange = "2017-01-13 22:31:24 +0000";
layers = (
{
layerId = UUID0;
paths = (
{
closed = 1;
nodes = (
"694 -12 OFFCURVE",
"739 98 OFFCURVE",
"739 213 CURVE SMOOTH",
"739 226 OFFCURVE",
"737 267 OFFCURVE",
"729 303 CURVE",
"644 282 LINE",
"650 249 OFFCURVE",
"651 215 OFFCURVE",
"651 206 CURVE SMOOTH",
"651 149 OFFCURVE",
"638 66 OFFCURVE",
"559 66 CURVE SMOOTH",
"521 66 OFFCURVE",
"501 92 OFFCURVE",
"501 157 CURVE SMOOTH",
"501 177 OFFCURVE",
"505 212 OFFCURVE",
"509 254 CURVE SMOOTH",
"557 714 LINE",
"445 714 LINE",
"321 529 LINE",
"233 714 LINE",
"124 714 LINE",
"49 0 LINE",
"139 0 LINE",
"184 433 LINE SMOOTH",
"191 503 OFFCURVE",
"194 565 OFFCURVE",
"195 606 CURVE",
"199 606 LINE",
"285 420 LINE",
"334 420 LINE",
"459 605 LINE",
"463 605 LINE",
"416 232 LINE SMOOTH",
"412 201 OFFCURVE",
"408 162 OFFCURVE",
"408 145 CURVE SMOOTH",
"408 40 OFFCURVE",
"458 -12 OFFCURVE",
"556 -12 CURVE SMOOTH"
);
}
);
width = 778;
}
);
unicode = 10484;
},
{
glyphname = u10485;
lastChange = "2017-01-13 22:31:24 +0000";
layers = (
{
layerId = UUID0;
paths = (
{
closed = 1;
nodes = (
"619 -12 OFFCURVE",
"664 88 OFFCURVE",
"664 204 CURVE SMOOTH",
"664 216 OFFCURVE",
"661 267 OFFCURVE",
"654 303 CURVE",
"568 282 LINE",
"575 248 OFFCURVE",
"576 200 OFFCURVE",
"576 190 CURVE SMOOTH",
"576 125 OFFCURVE",
"562 66 OFFCURVE",
"483 66 CURVE SMOOTH",
"440 66 OFFCURVE",
"424 90 OFFCURVE",
"424 120 CURVE SMOOTH",
"424 182 OFFCURVE",
"437 242 OFFCURVE",
"437 302 CURVE SMOOTH",
"437 404 OFFCURVE",
"402 464 OFFCURVE",
"290 464 CURVE SMOOTH",
"250 464 OFFCURVE",
"214 455 OFFCURVE",
"185 438 CURVE",
"190 487 LINE SMOOTH",
"200 582 OFFCURVE",
"236 646 OFFCURVE",
"321 646 CURVE SMOOTH",
"373 646 OFFCURVE",
"414 625 OFFCURVE",
"448 590 CURVE",
"511 648 LINE",
"463 693 OFFCURVE",
"413 725 OFFCURVE",
"331 725 CURVE SMOOTH",
"183 725 OFFCURVE",
"114 630 OFFCURVE",
"100 491 CURVE SMOOTH",
"49 0 LINE",
"139 0 LINE",
"175 347 LINE",
"196 371 OFFCURVE",
"227 386 OFFCURVE",
"270 386 CURVE SMOOTH",
"333 386 OFFCURVE",
"346 352 OFFCURVE",
"346 292 CURVE SMOOTH",
"346 232 OFFCURVE",
"332 176 OFFCURVE",
"332 120 CURVE SMOOTH",
"332 15 OFFCURVE",
"399 -12 OFFCURVE",
"480 -12 CURVE SMOOTH"
);
}
);
width = 703;
}
);
unicode = 10485;
},
{
glyphname = u10486;
lastChange = "2017-01-13 22:31:24 +0000";
layers = (
{
layerId = UUID0;
paths = (
{
closed = 1;
nodes = (
"551 -11 OFFCURVE",
"681 147 OFFCURVE",
"681 409 CURVE SMOOTH",
"681 597 OFFCURVE",
"586 725 OFFCURVE",
"407 725 CURVE SMOOTH",
"172 725 OFFCURVE",
"54 545 OFFCURVE",
"54 304 CURVE SMOOTH",
"54 119 OFFCURVE",
"143 -11 OFFCURVE",
"329 -11 CURVE SMOOTH"
);
},
{
closed = 1;
nodes = (
"209 67 OFFCURVE",
"148 164 OFFCURVE",
"148 308 CURVE SMOOTH",
"148 505 OFFCURVE",
"229 647 OFFCURVE",
"399 647 CURVE SMOOTH",
"527 647 OFFCURVE",
"586 552 OFFCURVE",
"586 408 CURVE SMOOTH",
"586 212 OFFCURVE",
"506 67 OFFCURVE",
"337 67 CURVE SMOOTH"
);
}
);
width = 744;
}
);
unicode = 10486;
},
{
glyphname = u10487;
lastChange = "2017-01-13 22:31:24 +0000";
layers = (
{
layerId = UUID0;
paths = (
{
closed = 1;
nodes = (
"334 0 LINE",
"409 714 LINE",
"349 714 LINE",
"313 707 OFFCURVE",
"292 704 OFFCURVE",
"264 704 CURVE SMOOTH",
"192 704 OFFCURVE",
"160 725 OFFCURVE",
"96 725 CURVE SMOOTH",
"60 725 OFFCURVE",
"31 720 OFFCURVE",
"0 704 CURVE",
"30 636 LINE",
"58 646 OFFCURVE",
"82 646 OFFCURVE",
"96 646 CURVE SMOOTH",
"141 646 OFFCURVE",
"186 625 OFFCURVE",
"254 625 CURVE SMOOTH",
"278 625 OFFCURVE",
"284 627 OFFCURVE",
"311 632 CURVE",
"244 0 LINE"
);
}
);
width = 458;
}
);
unicode = 10487;
},
{
glyphname = u10488;
lastChange = "2017-01-13 22:31:24 +0000";
layers = (
{
layerId = UUID0;
paths = (
{
closed = 1;
nodes = (
"411 -11 OFFCURVE",
"505 94 OFFCURVE",
"505 235 CURVE SMOOTH",
"505 318 OFFCURVE",
"466 423 OFFCURVE",
"292 464 CURVE",
"314 502 OFFCURVE",
"330 543 OFFCURVE",
"330 593 CURVE SMOOTH",
"330 671 OFFCURVE",
"276 725 OFFCURVE",
"180 725 CURVE SMOOTH",
"127 725 OFFCURVE",
"82 714 OFFCURVE",
"29 684 CURVE",
"60 617 LINE",
"87 633 OFFCURVE",
"119 646 OFFCURVE",
"165 646 CURVE SMOOTH",
"212 646 OFFCURVE",
"235 619 OFFCURVE",
"235 585 CURVE SMOOTH",
"235 451 OFFCURVE",
"56 352 OFFCURVE",
"56 164 CURVE SMOOTH",
"56 67 OFFCURVE",
"127 -11 OFFCURVE",
"256 -11 CURVE SMOOTH"
);
},
{
closed = 1;
nodes = (
"196 67 OFFCURVE",
"151 111 OFFCURVE",
"151 172 CURVE SMOOTH",
"151 268 OFFCURVE",
"197 331 OFFCURVE",
"243 393 CURVE",
"353 373 OFFCURVE",
"411 311 OFFCURVE",
"411 229 CURVE SMOOTH",
"411 151 OFFCURVE",
"363 67 OFFCURVE",
"271 67 CURVE SMOOTH"
);
}
);
width = 564;
}
);
unicode = 10488;
},
{
glyphname = u10489;
lastChange = "2017-01-13 22:31:24 +0000";
layers = (
{
layerId = UUID0;
paths = (
{
closed = 1;
nodes = (
"427 -11 OFFCURVE",
"473 0 OFFCURVE",
"525 30 CURVE",
"494 97 LINE",
"467 81 OFFCURVE",
"435 67 OFFCURVE",
"389 67 CURVE SMOOTH",
"342 67 OFFCURVE",
"319 95 OFFCURVE",
"319 129 CURVE SMOOTH",
"319 263 OFFCURVE",
"498 361 OFFCURVE",
"498 549 CURVE SMOOTH",
"498 646 OFFCURVE",
"427 725 OFFCURVE",
"298 725 CURVE SMOOTH",
"144 725 OFFCURVE",
"49 619 OFFCURVE",
"49 477 CURVE SMOOTH",
"49 394 OFFCURVE",
"88 289 OFFCURVE",
"262 248 CURVE",
"240 210 OFFCURVE",
"224 171 OFFCURVE",
"224 121 CURVE SMOOTH",
"224 42 OFFCURVE",
"278 -11 OFFCURVE",
"375 -11 CURVE SMOOTH"
);
},
{
closed = 1;
nodes = (
"201 340 OFFCURVE",
"144 401 OFFCURVE",
"144 483 CURVE SMOOTH",
"144 561 OFFCURVE",
"191 646 OFFCURVE",
"283 646 CURVE SMOOTH",
"358 646 OFFCURVE",
"403 601 OFFCURVE",
"403 540 CURVE SMOOTH",
"403 445 OFFCURVE",
"356 381 OFFCURVE",
"311 319 CURVE"
);
}
);
width = 554;
}
);
unicode = 10489;
},
{
glyphname = u1048A;
lastChange = "2017-01-13 22:31:24 +0000";
layers = (
{
layerId = UUID0;
paths = (
{
closed = 1;
nodes = (
"447 -11 OFFCURVE",
"502 101 OFFCURVE",
"502 221 CURVE SMOOTH",
"502 249 OFFCURVE",
"502 286 OFFCURVE",
"496 313 CURVE",
"529 313 OFFCURVE",
"561 313 OFFCURVE",
"594 316 CURVE",
"604 396 LINE",
"569 392 OFFCURVE",
"536 391 OFFCURVE",
"502 391 CURVE SMOOTH",
"466 391 OFFCURVE",
"435 393 OFFCURVE",
"399 396 CURVE",
"394 321 LINE",
"409 297 OFFCURVE",
"412 267 OFFCURVE",
"412 234 CURVE SMOOTH",
"412 96 OFFCURVE",
"369 67 OFFCURVE",
"323 67 CURVE SMOOTH",
"297 67 OFFCURVE",
"267 81 OFFCURVE",
"266 149 CURVE SMOOTH",
"266 163 OFFCURVE",
"267 184 OFFCURVE",
"269 203 CURVE SMOOTH",
"324 714 LINE",
"260 714 LINE",
"240 707 OFFCURVE",
"219 705 OFFCURVE",
"188 705 CURVE SMOOTH",
"145 705 OFFCURVE",
"106 725 OFFCURVE",
"59 725 CURVE SMOOTH",
"42 725 OFFCURVE",
"28 724 OFFCURVE",
"15 721 CURVE",
"27 645 LINE",
"38 646 OFFCURVE",
"53 646 OFFCURVE",
"60 646 CURVE SMOOTH",
"89 646 OFFCURVE",
"143 625 OFFCURVE",
"188 625 CURVE SMOOTH",
"201 625 OFFCURVE",
"213 626 OFFCURVE",
"226 630 CURVE",
"178 198 LINE SMOOTH",
"176 180 OFFCURVE",
"175 162 OFFCURVE",
"175 146 CURVE SMOOTH",
"175 42 OFFCURVE",
"225 -11 OFFCURVE",
"326 -11 CURVE SMOOTH"
);
}
);
width = 623;
}
);
unicode = 1048A;
},
{
glyphname = u1048B;
lastChange = "2017-01-13 22:31:24 +0000";
layers = (
{
layerId = UUID0;
paths = (
{
closed = 1;
nodes = (
"240 -11 OFFCURVE",
"333 66 OFFCURVE",
"378 226 CURVE",
"406 228 OFFCURVE",
"432 229 OFFCURVE",
"453 229 CURVE",
"465 305 LINE",
"443 305 OFFCURVE",
"419 304 OFFCURVE",
"395 302 CURVE",
"397 318 OFFCURVE",
"399 333 OFFCURVE",
"401 350 CURVE SMOOTH",
"438 714 LINE",
"349 714 LINE",
"330 540 LINE SMOOTH",
"324 487 OFFCURVE",
"302 458 OFFCURVE",
"250 458 CURVE SMOOTH",
"196 458 OFFCURVE",
"185 492 OFFCURVE",
"185 530 CURVE SMOOTH",
"185 541 OFFCURVE",
"186 552 OFFCURVE",
"187 563 CURVE SMOOTH",
"202 714 LINE",
"112 714 LINE",
"94 540 LINE SMOOTH",
"93 530 OFFCURVE",
"93 521 OFFCURVE",
"93 513 CURVE SMOOTH",
"93 423 OFFCURVE",
"147 379 OFFCURVE",
"235 379 CURVE SMOOTH",
"265 379 OFFCURVE",
"292 386 OFFCURVE",
"314 397 CURVE",
"309 353 LINE SMOOTH",
"307 333 OFFCURVE",
"304 313 OFFCURVE",
"300 292 CURVE",
"152 270 OFFCURVE",
"0 215 OFFCURVE",
"0 103 CURVE SMOOTH",
"0 28 OFFCURVE",
"48 -11 OFFCURVE",
"131 -11 CURVE SMOOTH"
);
},
{
closed = 1;
nodes = (
"107 67 OFFCURVE",
"90 85 OFFCURVE",
"90 104 CURVE SMOOTH",
"90 163 OFFCURVE",
"185 196 OFFCURVE",
"284 213 CURVE",
"260 132 OFFCURVE",
"218 67 OFFCURVE",
"133 67 CURVE SMOOTH"
);
}
);
width = 504;
}
);
unicode = 1048B;
},
{
glyphname = u1048C;
lastChange = "2017-01-13 22:31:24 +0000";
layers = (
{
layerId = UUID0;
paths = (
{
closed = 1;
nodes = (
"604 -11 OFFCURVE",
"651 99 OFFCURVE",
"651 215 CURVE SMOOTH",
"651 228 OFFCURVE",
"650 267 OFFCURVE",
"642 303 CURVE",
"556 282 LINE",
"563 248 OFFCURVE",
"563 217 OFFCURVE",
"563 207 CURVE SMOOTH",
"563 150 OFFCURVE",
"550 67 OFFCURVE",
"471 67 CURVE SMOOTH",
"433 67 OFFCURVE",
"413 93 OFFCURVE",
"413 159 CURVE SMOOTH",
"413 200 OFFCURVE",
"422 233 OFFCURVE",
"422 269 CURVE SMOOTH",
"422 329 OFFCURVE",
"396 372 OFFCURVE",
"338 418 CURVE SMOOTH",
"313 438 LINE",
"358 482 OFFCURVE",
"395 531 OFFCURVE",
"395 602 CURVE SMOOTH",
"395 663 OFFCURVE",
"354 725 OFFCURVE",
"247 725 CURVE SMOOTH",
"150 725 OFFCURVE",
"104 660 OFFCURVE",
"104 597 CURVE SMOOTH",
"104 533 OFFCURVE",
"138 484 OFFCURVE",
"184 438 CURVE",
"94 360 OFFCURVE",
"84 346 OFFCURVE",
"73 240 CURVE SMOOTH",
"49 0 LINE",
"139 0 LINE",
"163 236 LINE SMOOTH",
"170 300 OFFCURVE",
"195 330 OFFCURVE",
"249 379 CURVE",
"286 346 LINE SMOOTH",
"314 321 OFFCURVE",
"329 290 OFFCURVE",
"329 250 CURVE SMOOTH",
"329 214 OFFCURVE",
"320 181 OFFCURVE",
"320 146 CURVE SMOOTH",
"320 41 OFFCURVE",
"376 -11 OFFCURVE",
"466 -11 CURVE SMOOTH"
);
},
{
closed = 1;
nodes = (
"215 525 OFFCURVE",
"194 558 OFFCURVE",
"194 596 CURVE SMOOTH",
"194 615 OFFCURVE",
"209 646 OFFCURVE",
"248 646 CURVE SMOOTH",
"279 646 OFFCURVE",
"304 628 OFFCURVE",
"304 595 CURVE SMOOTH",
"304 548 OFFCURVE",
"282 524 OFFCURVE",
"248 493 CURVE"
);
}
);
width = 690;
}
);
unicode = 1048C;
},
{
glyphname = u1048D;
lastChange = "2017-01-13 22:31:24 +0000";
layers = (
{
layerId = UUID0;
paths = (
{
closed = 1;
nodes = (
"512 -11 OFFCURVE",
"557 98 OFFCURVE",
"557 213 CURVE SMOOTH",
"557 226 OFFCURVE",
"555 267 OFFCURVE",
"547 303 CURVE",
"462 282 LINE",
"468 255 OFFCURVE",
"469 215 OFFCURVE",
"469 206 CURVE SMOOTH",
"469 149 OFFCURVE",
"456 67 OFFCURVE",
"377 67 CURVE SMOOTH",
"339 67 OFFCURVE",
"319 93 OFFCURVE",
"319 159 CURVE SMOOTH",
"319 179 OFFCURVE",
"323 212 OFFCURVE",
"327 254 CURVE SMOOTH",
"375 714 LINE",
"285 714 LINE",
"266 540 LINE SMOOTH",
"260 487 OFFCURVE",
"238 458 OFFCURVE",
"186 458 CURVE SMOOTH",
"133 458 OFFCURVE",
"122 492 OFFCURVE",
"122 530 CURVE SMOOTH",
"122 541 OFFCURVE",
"123 552 OFFCURVE",
"124 563 CURVE SMOOTH",
"139 714 LINE",
"49 714 LINE",
"31 540 LINE SMOOTH",
"30 530 OFFCURVE",
"29 521 OFFCURVE",
"29 513 CURVE SMOOTH",
"29 423 OFFCURVE",
"83 379 OFFCURVE",
"172 379 CURVE SMOOTH",
"200 379 OFFCURVE",
"229 385 OFFCURVE",
"251 395 CURVE",
"234 232 LINE SMOOTH",
"231 204 OFFCURVE",
"226 163 OFFCURVE",
"226 146 CURVE SMOOTH",
"226 41 OFFCURVE",
"286 -11 OFFCURVE",
"374 -11 CURVE SMOOTH"
);
}
);
width = 596;
}
);
unicode = 1048D;
},
{
glyphname = u1048E;
lastChange = "2017-01-13 22:31:24 +0000";
layers = (
{
layerId = UUID0;
paths = (
{
closed = 1;
nodes = (
"231 -11 OFFCURVE",
"296 46 OFFCURVE",
"308 180 CURVE SMOOTH",
"320 315 LINE",
"357 332 OFFCURVE",
"395 347 OFFCURVE",
"430 365 CURVE",
"416 233 LINE SMOOTH",
"409 167 OFFCURVE",
"408 163 OFFCURVE",
"408 146 CURVE SMOOTH",
"408 41 OFFCURVE",
"463 -11 OFFCURVE",
"556 -11 CURVE SMOOTH",
"694 -11 OFFCURVE",
"739 98 OFFCURVE",
"739 213 CURVE SMOOTH",
"739 226 OFFCURVE",
"736 267 OFFCURVE",
"729 303 CURVE",
"644 282 LINE",
"648 248 OFFCURVE",
"651 215 OFFCURVE",
"651 206 CURVE SMOOTH",
"651 149 OFFCURVE",
"637 67 OFFCURVE",
"559 67 CURVE SMOOTH",
"521 67 OFFCURVE",
"500 93 OFFCURVE",
"500 159 CURVE SMOOTH",
"500 179 OFFCURVE",
"503 212 OFFCURVE",
"508 254 CURVE SMOOTH",
"526 414 LINE",
"636 470 OFFCURVE",
"724 531 OFFCURVE",
"724 626 CURVE SMOOTH",
"724 678 OFFCURVE",
"687 725 OFFCURVE",
"617 725 CURVE SMOOTH",
"514 725 OFFCURVE",
"463 667 OFFCURVE",
"449 535 CURVE SMOOTH",
"441 457 LINE",
"409 438 OFFCURVE",
"370 420 OFFCURVE",
"329 402 CURVE",
"341 525 LINE SMOOTH",
"342 538 OFFCURVE",
"344 550 OFFCURVE",
"344 563 CURVE SMOOTH",
"344 665 OFFCURVE",
"301 725 OFFCURVE",
"189 725 CURVE SMOOTH",
"130 725 OFFCURVE",
"81 709 OFFCURVE",
"51 684 CURVE",
"100 619 LINE",
"118 637 OFFCURVE",
"147 646 OFFCURVE",
"171 646 CURVE SMOOTH",
"234 646 OFFCURVE",
"252 613 OFFCURVE",
"252 553 CURVE SMOOTH",
"252 544 OFFCURVE",
"252 535 OFFCURVE",
"251 526 CURVE SMOOTH",
"235 363 LINE",
"114 309 OFFCURVE",
"0 243 OFFCURVE",
"0 126 CURVE SMOOTH",
"0 55 OFFCURVE",
"42 -11 OFFCURVE",
"128 -11 CURVE SMOOTH"
);
},
{
closed = 1;
nodes = (
"113 67 OFFCURVE",
"90 90 OFFCURVE",
"90 133 CURVE SMOOTH",
"90 192 OFFCURVE",
"149 234 OFFCURVE",
"227 273 CURVE",
"219 183 LINE SMOOTH",
"212 109 OFFCURVE",
"180 67 OFFCURVE",
"142 67 CURVE SMOOTH"
);
},
{
closed = 1;
nodes = (
"538 532 LINE SMOOTH",
"545 605 OFFCURVE",
"562 646 OFFCURVE",
"600 646 CURVE SMOOTH",
"621 646 OFFCURVE",
"633 630 OFFCURVE",
"633 612 CURVE SMOOTH",
"633 571 OFFCURVE",
"592 537 OFFCURVE",
"535 504 CURVE"
);
}
);
width = 778;
}
);
unicode = 1048E;
},
{
glyphname = u1048F;
lastChange = "2017-01-13 22:31:24 +0000";
layers = (
{
layerId = UUID0;
paths = (
{
closed = 1;
nodes = (
"109 0 LINE",
"126 153 LINE SMOOTH",
"132 206 OFFCURVE",
"149 235 OFFCURVE",
"195 235 CURVE SMOOTH",
"249 235 OFFCURVE",
"274 210 OFFCURVE",
"274 172 CURVE",
"256 0 LINE",
"346 0 LINE",
"421 714 LINE",
"332 714 LINE",
"313 540 LINE SMOOTH",
"307 487 OFFCURVE",
"285 458 OFFCURVE",
"232 458 CURVE SMOOTH",
"179 458 OFFCURVE",
"168 492 OFFCURVE",
"168 530 CURVE SMOOTH",
"168 541 OFFCURVE",
"169 552 OFFCURVE",
"170 563 CURVE SMOOTH",
"185 714 LINE",
"95 714 LINE",
"77 540 LINE SMOOTH",
"76 530 OFFCURVE",
"76 521 OFFCURVE",
"76 513 CURVE SMOOTH",
"76 423 OFFCURVE",
"130 379 OFFCURVE",
"218 379 CURVE SMOOTH",
"248 379 OFFCURVE",
"274 386 OFFCURVE",
"297 397 CURVE",
"287 293 LINE",
"260 307 OFFCURVE",
"227 313 OFFCURVE",
"192 313 CURVE SMOOTH",
"99 313 OFFCURVE",
"46 265 OFFCURVE",
"36 164 CURVE SMOOTH",
"20 0 LINE"
);
}
);
width = 460;
}
);
unicode = 1048F;
},
{
glyphname = u10490;
lastChange = "2017-01-13 22:31:24 +0000";
layers = (
{
layerId = UUID0;
paths = (
{
closed = 1;
nodes = (
"654 -11 OFFCURVE",
"699 99 OFFCURVE",
"699 215 CURVE SMOOTH",
"699 228 OFFCURVE",
"698 267 OFFCURVE",
"689 303 CURVE",
"604 282 LINE",
"610 248 OFFCURVE",
"611 217 OFFCURVE",
"611 207 CURVE SMOOTH",
"611 150 OFFCURVE",
"597 67 OFFCURVE",
"519 67 CURVE SMOOTH",
"480 67 OFFCURVE",
"460 93 OFFCURVE",
"460 159 CURVE SMOOTH",
"460 179 OFFCURVE",
"464 222 OFFCURVE",
"469 264 CURVE SMOOTH",
"491 460 LINE SMOOTH",
"495 495 OFFCURVE",
"498 527 OFFCURVE",
"498 556 CURVE SMOOTH",
"498 660 OFFCURVE",
"464 725 OFFCURVE",
"325 725 CURVE SMOOTH",
"136 725 OFFCURVE",
"112 610 OFFCURVE",
"97 462 CURVE SMOOTH",
"49 0 LINE",
"138 0 LINE",
"187 462 LINE SMOOTH",
"198 570 OFFCURVE",
"217 647 OFFCURVE",
"312 647 CURVE SMOOTH",
"383 647 OFFCURVE",
"405 604 OFFCURVE",
"405 530 CURVE SMOOTH",
"405 510 OFFCURVE",
"404 487 OFFCURVE",
"401 463 CURVE SMOOTH",
"376 242 LINE SMOOTH",
"369 176 OFFCURVE",
"368 163 OFFCURVE",
"368 146 CURVE SMOOTH",
"368 41 OFFCURVE",
"423 -11 OFFCURVE",
"516 -11 CURVE SMOOTH"
);
}
);
width = 738;
}
);
unicode = 10490;
},
{
glyphname = u10491;
lastChange = "2017-01-13 22:31:24 +0000";
layers = (
{
layerId = UUID0;
paths = (
{
closed = 1;
nodes = (
"385 -11 OFFCURVE",
"453 110 OFFCURVE",
"453 268 CURVE SMOOTH",
"453 416 OFFCURVE",
"371 497 OFFCURVE",
"249 497 CURVE SMOOTH",
"218 497 OFFCURVE",
"180 488 OFFCURVE",
"159 476 CURVE",
"184 714 LINE",
"94 714 LINE",
"51 303 LINE",
"141 303 LINE",
"148 380 LINE",
"166 404 OFFCURVE",
"210 418 OFFCURVE",
"243 418 CURVE SMOOTH",
"308 418 OFFCURVE",
"358 374 OFFCURVE",
"358 264 CURVE SMOOTH",
"358 154 OFFCURVE",
"316 67 OFFCURVE",
"223 67 CURVE SMOOTH",
"171 67 OFFCURVE",
"122 83 OFFCURVE",
"108 159 CURVE",
"20 153 LINE",
"42 24 OFFCURVE",
"124 -11 OFFCURVE",
"224 -11 CURVE SMOOTH"
);
}
);
width = 511;
}
);
unicode = 10491;
},
{
glyphname = u10492;
lastChange = "2017-01-13 22:31:24 +0000";
layers = (
{
layerId = UUID0;
paths = (
{
closed = 1;
nodes = (
"358 -11 OFFCURVE",
"481 43 OFFCURVE",
"501 251 CURVE SMOOTH",
"507 313 LINE",
"417 313 LINE",
"412 265 LINE SMOOTH",
"402 162 OFFCURVE",
"353 67 OFFCURVE",
"248 67 CURVE SMOOTH",
"176 67 OFFCURVE",
"129 102 OFFCURVE",
"129 182 CURVE SMOOTH",
"129 313 OFFCURVE",
"424 328 OFFCURVE",
"424 578 CURVE SMOOTH",
"424 653 OFFCURVE",
"378 725 OFFCURVE",
"254 725 CURVE SMOOTH",
"130 725 OFFCURVE",
"77 669 OFFCURVE",
"60 573 CURVE",
"152 558 LINE",
"156 585 OFFCURVE",
"169 646 OFFCURVE",
"251 646 CURVE SMOOTH",
"306 646 OFFCURVE",
"330 618 OFFCURVE",
"330 576 CURVE SMOOTH",
"330 354 OFFCURVE",
"34 371 OFFCURVE",
"34 176 CURVE SMOOTH",
"34 85 OFFCURVE",
"86 -11 OFFCURVE",
"230 -11 CURVE SMOOTH"
);
}
);
width = 546;
}
);
unicode = 10492;
},
{
glyphname = u10493;
lastChange = "2017-01-13 22:31:24 +0000";
layers = (
{
layerId = UUID0;
paths = (
{
closed = 1;
nodes = (
"785 -11 OFFCURVE",
"830 88 OFFCURVE",
"830 204 CURVE SMOOTH",
"830 216 OFFCURVE",
"829 267 OFFCURVE",
"820 303 CURVE",
"734 282 LINE",
"741 248 OFFCURVE",
"742 200 OFFCURVE",
"742 190 CURVE SMOOTH",
"742 125 OFFCURVE",
"728 67 OFFCURVE",
"649 67 CURVE SMOOTH",
"606 67 OFFCURVE",
"590 92 OFFCURVE",
"590 122 CURVE SMOOTH",
"590 184 OFFCURVE",
"603 242 OFFCURVE",
"603 302 CURVE SMOOTH",
"603 404 OFFCURVE",
"568 464 OFFCURVE",
"456 464 CURVE SMOOTH",
"418 464 OFFCURVE",
"384 456 OFFCURVE",
"356 441 CURVE",
"385 714 LINE",
"295 714 LINE",
"276 540 LINE SMOOTH",
"270 487 OFFCURVE",
"248 458 OFFCURVE",
"196 458 CURVE SMOOTH",
"143 458 OFFCURVE",
"131 492 OFFCURVE",
"131 530 CURVE SMOOTH",
"131 541 OFFCURVE",
"132 552 OFFCURVE",
"133 563 CURVE SMOOTH",
"148 714 LINE",
"59 714 LINE",
"41 540 LINE SMOOTH",
"40 530 OFFCURVE",
"39 521 OFFCURVE",
"39 513 CURVE SMOOTH",
"39 423 OFFCURVE",
"93 379 OFFCURVE",
"182 379 CURVE SMOOTH",
"211 379 OFFCURVE",
"238 386 OFFCURVE",
"261 397 CURVE",
"220 0 LINE",
"310 0 LINE",
"347 353 LINE",
"367 373 OFFCURVE",
"396 386 OFFCURVE",
"436 386 CURVE SMOOTH",
"499 386 OFFCURVE",
"512 352 OFFCURVE",
"512 292 CURVE SMOOTH",
"512 232 OFFCURVE",
"498 178 OFFCURVE",
"498 121 CURVE SMOOTH",
"498 16 OFFCURVE",
"565 -11 OFFCURVE",
"646 -11 CURVE SMOOTH"
);
}
);
width = 869;
}
);
unicode = 10493;
},
{
glyphname = u10494;
lastChange = "2017-01-13 22:31:24 +0000";
layers = (
{
layerId = UUID0;
paths = (
{
closed = 1;
nodes = (
"394 -11 OFFCURVE",
"506 47 OFFCURVE",
"541 269 CURVE",
"445 269 LINE",
"437 184 OFFCURVE",
"385 67 OFFCURVE",
"271 67 CURVE SMOOTH",
"195 67 OFFCURVE",
"142 116 OFFCURVE",
"142 219 CURVE SMOOTH",
"142 287 OFFCURVE",
"170 343 OFFCURVE",
"216 380 CURVE",
"249 352 OFFCURVE",
"292 334 OFFCURVE",
"348 334 CURVE SMOOTH",
"421 334 OFFCURVE",
"486 371 OFFCURVE",
"486 478 CURVE SMOOTH",
"486 559 OFFCURVE",
"470 664 OFFCURVE",
"450 714 CURVE",
"360 714 LINE",
"383 645 OFFCURVE",
"395 537 OFFCURVE",
"395 475 CURVE SMOOTH",
"395 440 OFFCURVE",
"378 412 OFFCURVE",
"336 412 CURVE SMOOTH",
"253 412 OFFCURVE",
"215 541 OFFCURVE",
"205 630 CURVE SMOOTH",
"196 714 LINE",
"106 714 LINE",
"117 611 LINE SMOOTH",
"123 555 OFFCURVE",
"138 493 OFFCURVE",
"167 441 CURVE",
"78 376 OFFCURVE",
"49 284 OFFCURVE",
"49 208 CURVE SMOOTH",
"49 104 OFFCURVE",
"116 -11 OFFCURVE",
"260 -11 CURVE SMOOTH"
);
}
);
width = 580;
}
);
unicode = 10494;
},
{
glyphname = u10495;
lastChange = "2017-01-13 22:31:24 +0000";
layers = (
{
layerId = UUID0;
paths = (
{
closed = 1;
nodes = (
"388 -11 OFFCURVE",
"497 62 OFFCURVE",
"517 265 CURVE SMOOTH",
"522 313 LINE",
"432 313 LINE",
"428 274 LINE SMOOTH",
"419 189 OFFCURVE",
"381 67 OFFCURVE",
"267 67 CURVE SMOOTH",
"184 67 OFFCURVE",
"142 106 OFFCURVE",
"142 209 CURVE SMOOTH",
"142 283 OFFCURVE",
"186 334 OFFCURVE",
"235 380 CURVE",
"252 365 OFFCURVE",
"269 351 OFFCURVE",
"284 337 CURVE",
"347 401 LINE",
"330 413 OFFCURVE",
"314 426 OFFCURVE",
"299 438 CURVE",
"343 482 OFFCURVE",
"380 531 OFFCURVE",
"380 602 CURVE SMOOTH",
"380 678 OFFCURVE",
"326 725 OFFCURVE",
"239 725 CURVE SMOOTH",
"132 725 OFFCURVE",
"89 660 OFFCURVE",
"89 597 CURVE SMOOTH",
"89 538 OFFCURVE",
"125 486 OFFCURVE",
"172 438 CURVE",
"83 356 OFFCURVE",
"49 283 OFFCURVE",
"49 203 CURVE SMOOTH",
"49 99 OFFCURVE",
"95 -11 OFFCURVE",
"250 -11 CURVE SMOOTH"
);
},
{
closed = 1;
nodes = (
"201 528 OFFCURVE",
"179 562 OFFCURVE",
"179 596 CURVE SMOOTH",
"179 615 OFFCURVE",
"194 646 OFFCURVE",
"236 646 CURVE SMOOTH",
"262 646 OFFCURVE",
"290 634 OFFCURVE",
"290 601 CURVE SMOOTH",
"290 555 OFFCURVE",
"268 525 OFFCURVE",
"235 494 CURVE"
);
}
);
width = 561;
}
);
unicode = 10495;
},
{
glyphname = u10496;
lastChange = "2017-01-13 22:31:24 +0000";
layers = (
{
layerId = UUID0;
paths = (
{
closed = 1;
nodes = (
"379 -11 OFFCURVE",
"458 70 OFFCURVE",
"458 192 CURVE SMOOTH",
"458 295 OFFCURVE",
"374 351 OFFCURVE",
"299 406 CURVE SMOOTH",
"239 450 OFFCURVE",
"185 493 OFFCURVE",
"185 559 CURVE SMOOTH",
"185 630 OFFCURVE",
"247 646 OFFCURVE",
"275 646 CURVE SMOOTH",
"311 646 OFFCURVE",
"354 631 OFFCURVE",
"393 595 CURVE",
"440 664 LINE",
"399 703 OFFCURVE",
"342 725 OFFCURVE",
"271 725 CURVE SMOOTH",
"178 725 OFFCURVE",
"90 674 OFFCURVE",
"90 551 CURVE SMOOTH",
"90 446 OFFCURVE",
"165 392 OFFCURVE",
"237 342 CURVE SMOOTH",
"300 298 OFFCURVE",
"364 251 OFFCURVE",
"364 182 CURVE SMOOTH",
"364 125 OFFCURVE",
"334 67 OFFCURVE",
"230 67 CURVE SMOOTH",
"144 67 OFFCURVE",
"87 126 OFFCURVE",
"62 156 CURVE",
"0 94 LINE",
"68 16 OFFCURVE",
"149 -11 OFFCURVE",
"231 -11 CURVE SMOOTH"
);
}
);
width = 507;
}
);
unicode = 10496;
},
{
glyphname = u10497;
lastChange = "2017-01-13 22:31:24 +0000";
layers = (
{
layerId = UUID0;
paths = (
{
closed = 1;
nodes = (
"325 -11 OFFCURVE",
"370 98 OFFCURVE",
"370 213 CURVE SMOOTH",
"370 226 OFFCURVE",
"367 267 OFFCURVE",
"360 303 CURVE",
"275 282 LINE",
"281 251 OFFCURVE",
"282 215 OFFCURVE",
"282 206 CURVE SMOOTH",
"282 149 OFFCURVE",
"269 67 OFFCURVE",
"190 67 CURVE SMOOTH",
"152 67 OFFCURVE",
"132 92 OFFCURVE",
"132 157 CURVE SMOOTH",
"132 177 OFFCURVE",
"136 212 OFFCURVE",
"140 254 CURVE SMOOTH",
"188 714 LINE",
"99 714 LINE",
"47 232 LINE SMOOTH",
"44 205 OFFCURVE",
"39 172 OFFCURVE",
"39 145 CURVE SMOOTH",
"39 40 OFFCURVE",
"106 -11 OFFCURVE",
"187 -11 CURVE SMOOTH"
);
}
);
width = 409;
}
);
unicode = 10497;
},
{
glyphname = u10498;
lastChange = "2017-01-13 22:31:24 +0000";
layers = (
{
layerId = UUID0;
paths = (
{
closed = 1;
nodes = (
"370 20 OFFCURVE",
"446 329 OFFCURVE",
"446 514 CURVE SMOOTH",
"446 649 OFFCURVE",
"368 725 OFFCURVE",
"253 725 CURVE SMOOTH",
"123 725 OFFCURVE",
"39 638 OFFCURVE",
"39 484 CURVE SMOOTH",
"39 349 OFFCURVE",
"119 273 OFFCURVE",
"231 273 CURVE SMOOTH",
"266 273 OFFCURVE",
"295 279 OFFCURVE",
"322 291 CURVE",
"288 175 OFFCURVE",
"222 82 OFFCURVE",
"110 52 CURVE",
"125 -22 LINE"
);
},
{
closed = 1;
nodes = (
"162 351 OFFCURVE",
"134 400 OFFCURVE",
"134 483 CURVE SMOOTH",
"134 567 OFFCURVE",
"157 646 OFFCURVE",
"248 646 CURVE SMOOTH",
"313 646 OFFCURVE",
"351 598 OFFCURVE",
"351 514 CURVE SMOOTH",
"351 413 OFFCURVE",
"316 351 OFFCURVE",
"236 351 CURVE SMOOTH"
);
}
);
width = 504;
}
);
unicode = 10498;
},
{
glyphname = u10499;
lastChange = "2017-01-13 22:31:24 +0000";
layers = (
{
layerId = UUID0;
paths = (
{
closed = 1;
nodes = (
"709 -11 OFFCURVE",
"754 88 OFFCURVE",
"754 204 CURVE SMOOTH",
"754 216 OFFCURVE",
"751 267 OFFCURVE",
"745 303 CURVE",
"659 282 LINE",
"664 248 OFFCURVE",
"667 200 OFFCURVE",
"667 190 CURVE SMOOTH",
"667 125 OFFCURVE",
"653 67 OFFCURVE",
"574 67 CURVE SMOOTH",
"531 67 OFFCURVE",
"515 92 OFFCURVE",
"515 122 CURVE SMOOTH",
"515 184 OFFCURVE",
"528 242 OFFCURVE",
"528 302 CURVE SMOOTH",
"528 404 OFFCURVE",
"493 464 OFFCURVE",
"381 464 CURVE SMOOTH",
"343 464 OFFCURVE",
"310 456 OFFCURVE",
"281 441 CURVE",
"290 526 LINE SMOOTH",
"291 539 OFFCURVE",
"293 550 OFFCURVE",
"293 563 CURVE SMOOTH",
"293 665 OFFCURVE",
"250 725 OFFCURVE",
"138 725 CURVE SMOOTH",
"80 725 OFFCURVE",
"30 709 OFFCURVE",
"0 684 CURVE",
"49 619 LINE",
"67 637 OFFCURVE",
"97 646 OFFCURVE",
"121 646 CURVE SMOOTH",
"183 646 OFFCURVE",
"201 613 OFFCURVE",
"201 553 CURVE SMOOTH",
"201 544 OFFCURVE",
"201 536 OFFCURVE",
"200 526 CURVE SMOOTH",
"145 0 LINE",
"235 0 LINE",
"272 353 LINE",
"292 374 OFFCURVE",
"321 386 OFFCURVE",
"360 386 CURVE SMOOTH",
"424 386 OFFCURVE",
"437 352 OFFCURVE",
"437 292 CURVE SMOOTH",
"437 232 OFFCURVE",
"422 178 OFFCURVE",
"422 121 CURVE SMOOTH",
"422 16 OFFCURVE",
"490 -11 OFFCURVE",
"571 -11 CURVE SMOOTH"
);
}
);
width = 793;
}
);
unicode = 10499;
},
{
glyphname = u1049A;
lastChange = "2017-01-13 22:31:24 +0000";
layers = (
{
layerId = UUID0;
paths = (
{
closed = 1;
nodes = (
"90 0 LINE",
"105 138 LINE SMOOTH",
"113 213 OFFCURVE",
"151 288 OFFCURVE",
"235 288 CURVE SMOOTH",
"283 288 OFFCURVE",
"311 270 OFFCURVE",
"326 241 CURVE",
"300 0 LINE",
"390 0 LINE",
"441 472 LINE SMOOTH",
"442 485 OFFCURVE",
"449 550 OFFCURVE",
"449 563 CURVE SMOOTH",
"449 665 OFFCURVE",
"406 725 OFFCURVE",
"293 725 CURVE SMOOTH",
"235 725 OFFCURVE",
"186 709 OFFCURVE",
"155 684 CURVE",
"204 619 LINE",
"223 637 OFFCURVE",
"252 646 OFFCURVE",
"276 646 CURVE SMOOTH",
"338 646 OFFCURVE",
"356 618 OFFCURVE",
"356 559 CURVE SMOOTH",
"356 550 OFFCURVE",
"353 504 OFFCURVE",
"352 495 CURVE SMOOTH",
"335 338 LINE",
"309 356 OFFCURVE",
"274 366 OFFCURVE",
"231 366 CURVE SMOOTH",
"84 366 OFFCURVE",
"28 271 OFFCURVE",
"15 143 CURVE SMOOTH",
"0 0 LINE"
);
}
);
width = 502;
}
);
unicode = 1049A;
},
{
glyphname = u1049B;
lastChange = "2017-01-13 22:31:24 +0000";
layers = (
{
layerId = UUID0;
paths = (
{
closed = 1;
nodes = (
"407 0 LINE",
"451 414 LINE",
"361 414 LINE",
"353 333 LINE",
"335 310 OFFCURVE",
"291 295 OFFCURVE",
"259 295 CURVE SMOOTH",
"193 295 OFFCURVE",
"144 340 OFFCURVE",
"144 450 CURVE SMOOTH",
"144 560 OFFCURVE",
"186 646 OFFCURVE",
"279 646 CURVE SMOOTH",
"330 646 OFFCURVE",
"379 631 OFFCURVE",
"394 555 CURVE",
"482 561 LINE",
"459 689 OFFCURVE",
"377 725 OFFCURVE",
"278 725 CURVE SMOOTH",
"116 725 OFFCURVE",
"49 604 OFFCURVE",
"49 446 CURVE SMOOTH",
"49 298 OFFCURVE",
"130 217 OFFCURVE",
"253 217 CURVE SMOOTH",
"281 217 OFFCURVE",
"316 224 OFFCURVE",
"342 236 CURVE",
"317 0 LINE"
);
}
);
width = 536;
}
);
unicode = 1049B;
},
{
glyphname = u1049C;
lastChange = "2017-01-13 22:31:24 +0000";
layers = (
{
layerId = UUID0;
paths = (
{
closed = 1;
nodes = (
"288 -11 OFFCURVE",
"338 9 OFFCURVE",
"371 42 CURVE",
"397 5 OFFCURVE",
"438 -11 OFFCURVE",
"486 -11 CURVE SMOOTH",
"625 -11 OFFCURVE",
"669 98 OFFCURVE",
"669 213 CURVE SMOOTH",
"669 226 OFFCURVE",
"667 267 OFFCURVE",
"660 303 CURVE",
"574 282 LINE",
"580 250 OFFCURVE",
"582 215 OFFCURVE",
"582 206 CURVE SMOOTH",
"582 149 OFFCURVE",
"568 67 OFFCURVE",
"489 67 CURVE SMOOTH",
"451 67 OFFCURVE",
"433 91 OFFCURVE",
"433 156 CURVE SMOOTH",
"433 195 OFFCURVE",
"436 224 OFFCURVE",
"439 252 CURVE SMOOTH",
"488 714 LINE",
"398 714 LINE",
"350 252 LINE SMOOTH",
"339 144 OFFCURVE",
"316 67 OFFCURVE",
"221 67 CURVE SMOOTH",
"149 67 OFFCURVE",
"132 109 OFFCURVE",
"132 184 CURVE SMOOTH",
"132 204 OFFCURVE",
"134 227 OFFCURVE",
"136 251 CURVE SMOOTH",
"184 714 LINE",
"94 714 LINE",
"45 254 LINE SMOOTH",
"41 219 OFFCURVE",
"39 187 OFFCURVE",
"39 158 CURVE SMOOTH",
"39 78 OFFCURVE",
"72 -11 OFFCURVE",
"211 -11 CURVE SMOOTH"
);
}
);
width = 708;
}
);
unicode = 1049C;
},
{
glyphname = u1049D;
lastChange = "2017-01-13 22:31:24 +0000";
layers = (
{
layerId = UUID0;
paths = (
{
closed = 1;
nodes = (
"914 -11 OFFCURVE",
"959 98 OFFCURVE",
"959 213 CURVE SMOOTH",
"959 226 OFFCURVE",
"957 267 OFFCURVE",
"949 303 CURVE",
"864 282 LINE",
"869 252 OFFCURVE",
"871 215 OFFCURVE",
"871 206 CURVE SMOOTH",
"871 149 OFFCURVE",
"857 67 OFFCURVE",
"779 67 CURVE SMOOTH",
"741 67 OFFCURVE",
"719 92 OFFCURVE",
"719 146 CURVE SMOOTH",
"719 191 OFFCURVE",
"734 262 OFFCURVE",
"734 302 CURVE SMOOTH",
"734 405 OFFCURVE",
"667 444 OFFCURVE",
"587 444 CURVE SMOOTH",
"538 444 OFFCURVE",
"496 427 OFFCURVE",
"465 397 CURVE",
"439 428 OFFCURVE",
"400 444 OFFCURVE",
"352 444 CURVE SMOOTH",
"323 444 OFFCURVE",
"293 438 OFFCURVE",
"271 427 CURVE",
"280 515 LINE SMOOTH",
"282 532 OFFCURVE",
"284 551 OFFCURVE",
"284 563 CURVE SMOOTH",
"284 666 OFFCURVE",
"241 725 OFFCURVE",
"128 725 CURVE SMOOTH",
"70 725 OFFCURVE",
"21 709 OFFCURVE",
"-10 684 CURVE",
"39 619 LINE",
"58 637 OFFCURVE",
"87 646 OFFCURVE",
"111 646 CURVE SMOOTH",
"173 646 OFFCURVE",
"191 613 OFFCURVE",
"191 554 CURVE SMOOTH",
"191 545 OFFCURVE",
"186 493 OFFCURVE",
"185 484 CURVE SMOOTH",
"137 0 LINE",
"227 0 LINE",
"258 284 LINE SMOOTH",
"264 337 OFFCURVE",
"286 366 OFFCURVE",
"338 366 CURVE SMOOTH",
"391 366 OFFCURVE",
"402 332 OFFCURVE",
"402 294 CURVE SMOOTH",
"402 283 OFFCURVE",
"401 272 OFFCURVE",
"400 261 CURVE SMOOTH",
"373 0 LINE",
"463 0 LINE",
"493 284 LINE SMOOTH",
"499 337 OFFCURVE",
"526 366 OFFCURVE",
"578 366 CURVE SMOOTH",
"624 366 OFFCURVE",
"639 335 OFFCURVE",
"639 299 CURVE SMOOTH",
"639 246 OFFCURVE",
"625 191 OFFCURVE",
"625 140 CURVE SMOOTH",
"625 35 OFFCURVE",
"682 -11 OFFCURVE",
"776 -11 CURVE SMOOTH"
);
}
);
width = 998;
}
);
unicode = 1049D;
},
{
glyphname = u104A0;
lastChange = "2017-01-13 22:31:24 +0000";
layers = (
{
layerId = UUID0;
paths = (
{
closed = 1;
nodes = (
"469 -11 OFFCURVE",
"565 151 OFFCURVE",
"565 409 CURVE SMOOTH",
"565 597 OFFCURVE",
"499 725 OFFCURVE",
"334 725 CURVE SMOOTH",
"148 725 OFFCURVE",
"49 558 OFFCURVE",
"49 316 CURVE SMOOTH",
"49 116 OFFCURVE",
"118 -11 OFFCURVE",
"271 -11 CURVE SMOOTH"
);
},
{
closed = 1;
nodes = (
"184 67 OFFCURVE",
"144 164 OFFCURVE",
"144 308 CURVE SMOOTH",
"144 505 OFFCURVE",
"211 646 OFFCURVE",
"332 646 CURVE SMOOTH",
"440 646 OFFCURVE",
"470 539 OFFCURVE",
"470 395 CURVE SMOOTH",
"470 189 OFFCURVE",
"390 67 OFFCURVE",
"282 67 CURVE SMOOTH"
);
}
);
width = 628;
}
);
unicode = 104A0;
},
{
glyphname = u104A1;
lastChange = "2017-01-13 22:31:24 +0000";
layers = (
{
layerId = UUID0;
paths = (
{
closed = 1;
nodes = (
"279 -11 OFFCURVE",
"362 63 OFFCURVE",
"362 207 CURVE SMOOTH",
"362 352 OFFCURVE",
"219 416 OFFCURVE",
"219 545 CURVE SMOOTH",
"219 606 OFFCURVE",
"266 646 OFFCURVE",
"323 646 CURVE SMOOTH",
"344 646 OFFCURVE",
"359 646 OFFCURVE",
"373 645 CURVE",
"373 722 LINE",
"354 724 OFFCURVE",
"335 725 OFFCURVE",
"315 725 CURVE SMOOTH",
"210 725 OFFCURVE",
"125 658 OFFCURVE",
"125 527 CURVE SMOOTH",
"125 390 OFFCURVE",
"267 325 OFFCURVE",
"267 202 CURVE SMOOTH",
"267 129 OFFCURVE",
"243 67 OFFCURVE",
"106 67 CURVE SMOOTH",
"63 67 OFFCURVE",
"32 70 OFFCURVE",
"0 78 CURVE",
"0 -1 LINE",
"33 -8 OFFCURVE",
"64 -11 OFFCURVE",
"106 -11 CURVE SMOOTH"
);
}
);
width = 441;
}
);
unicode = 104A1;
},
{
glyphname = u104A2;
lastChange = "2017-01-13 22:31:24 +0000";
layers = (
{
layerId = UUID0;
paths = (
{
closed = 1;
nodes = (
"410 -11 OFFCURVE",
"534 50 OFFCURVE",
"556 265 CURVE SMOOTH",
"561 313 LINE",
"470 313 LINE",
"467 278 LINE SMOOTH",
"458 188 OFFCURVE",
"417 67 OFFCURVE",
"301 67 CURVE SMOOTH",
"229 67 OFFCURVE",
"166 107 OFFCURVE",
"166 210 CURVE SMOOTH",
"166 307 OFFCURVE",
"223 389 OFFCURVE",
"307 417 CURVE",
"284 491 LINE",
"251 479 OFFCURVE",
"223 464 OFFCURVE",
"199 447 CURVE",
"177 469 OFFCURVE",
"153 502 OFFCURVE",
"153 548 CURVE SMOOTH",
"153 592 OFFCURVE",
"180 646 OFFCURVE",
"264 646 CURVE SMOOTH",
"314 646 OFFCURVE",
"347 623 OFFCURVE",
"369 584 CURVE",
"442 638 LINE",
"405 693 OFFCURVE",
"348 725 OFFCURVE",
"266 725 CURVE SMOOTH",
"87 725 OFFCURVE",
"59 610 OFFCURVE",
"59 544 CURVE SMOOTH",
"59 478 OFFCURVE",
"86 422 OFFCURVE",
"132 381 CURVE",
"88 328 OFFCURVE",
"71 258 OFFCURVE",
"71 203 CURVE SMOOTH",
"71 99 OFFCURVE",
"140 -11 OFFCURVE",
"284 -11 CURVE SMOOTH"
);
}
);
width = 600;
}
);
unicode = 104A2;
},
{
glyphname = u104A3;
lastChange = "2017-01-13 22:31:24 +0000";
layers = (
{
layerId = UUID0;
paths = (
{
closed = 1;
nodes = (
"548 -11 OFFCURVE",
"583 -4 OFFCURVE",
"610 7 CURVE",
"590 86 LINE",
"572 73 OFFCURVE",
"548 67 OFFCURVE",
"527 67 CURVE SMOOTH",
"475 67 OFFCURVE",
"459 97 OFFCURVE",
"459 142 CURVE SMOOTH",
"459 151 OFFCURVE",
"460 160 OFFCURVE",
"461 170 CURVE SMOOTH",
"469 240 LINE SMOOTH",
"471 254 OFFCURVE",
"473 289 OFFCURVE",
"473 302 CURVE SMOOTH",
"473 404 OFFCURVE",
"412 464 OFFCURVE",
"300 464 CURVE SMOOTH",
"266 464 OFFCURVE",
"236 458 OFFCURVE",
"210 446 CURVE",
"230 636 LINE",
"273 636 LINE SMOOTH",
"304 636 OFFCURVE",
"378 638 OFFCURVE",
"439 647 CURVE",
"450 729 LINE",
"393 716 OFFCURVE",
"304 714 OFFCURVE",
"272 714 CURVE SMOOTH",
"231 714 LINE SMOOTH",
"199 714 OFFCURVE",
"106 716 OFFCURVE",
"50 730 CURVE",
"39 651 LINE",
"69 645 OFFCURVE",
"106 641 OFFCURVE",
"140 639 CURVE",
"73 0 LINE",
"163 0 LINE",
"201 362 LINE",
"221 377 OFFCURVE",
"246 386 OFFCURVE",
"279 386 CURVE SMOOTH",
"343 386 OFFCURVE",
"382 352 OFFCURVE",
"382 292 CURVE SMOOTH",
"382 280 OFFCURVE",
"382 266 OFFCURVE",
"380 250 CURVE SMOOTH",
"371 167 LINE SMOOTH",
"369 146 OFFCURVE",
"369 141 OFFCURVE",
"369 136 CURVE SMOOTH",
"369 50 OFFCURVE",
"410 -11 OFFCURVE",
"510 -11 CURVE SMOOTH"
);
}
);
width = 625;
}
);
unicode = 104A3;
},
{
glyphname = u104A4;
lastChange = "2017-01-13 22:31:24 +0000";
layers = (
{
layerId = UUID0;
paths = (
{
closed = 1;
nodes = (
"354 -11 OFFCURVE",
"465 54 OFFCURVE",
"465 193 CURVE SMOOTH",
"465 275 OFFCURVE",
"407 334 OFFCURVE",
"346 395 CURVE",
"420 459 OFFCURVE",
"493 538 OFFCURVE",
"505 656 CURVE SMOOTH",
"511 714 LINE",
"421 714 LINE",
"414 649 LINE SMOOTH",
"405 567 OFFCURVE",
"353 506 OFFCURVE",
"291 451 CURVE",
"245 501 OFFCURVE",
"208 556 OFFCURVE",
"208 627 CURVE SMOOTH",
"208 635 OFFCURVE",
"208 642 OFFCURVE",
"209 649 CURVE SMOOTH",
"216 714 LINE",
"126 714 LINE",
"121 656 LINE SMOOTH",
"120 645 OFFCURVE",
"119 633 OFFCURVE",
"119 623 CURVE SMOOTH",
"119 522 OFFCURVE",
"169 453 OFFCURVE",
"225 395 CURVE",
"137 323 OFFCURVE",
"59 256 OFFCURVE",
"59 149 CURVE SMOOTH",
"59 40 OFFCURVE",
"139 -11 OFFCURVE",
"242 -11 CURVE SMOOTH"
);
},
{
closed = 1;
nodes = (
"204 67 OFFCURVE",
"153 91 OFFCURVE",
"153 163 CURVE SMOOTH",
"153 234 OFFCURVE",
"208 282 OFFCURVE",
"279 341 CURVE",
"329 292 OFFCURVE",
"371 248 OFFCURVE",
"371 193 CURVE SMOOTH",
"371 96 OFFCURVE",
"297 67 OFFCURVE",
"251 67 CURVE SMOOTH"
);
}
);
width = 569;
}
);
unicode = 104A4;
},
{
glyphname = u104A5;
lastChange = "2017-01-13 22:31:24 +0000";
layers = (
{
layerId = UUID0;
paths = (
{
closed = 1;
nodes = (
"381 -11 OFFCURVE",
"423 97 OFFCURVE",
"423 213 CURVE SMOOTH",
"423 226 OFFCURVE",
"420 267 OFFCURVE",
"413 303 CURVE",
"328 282 LINE",
"333 249 OFFCURVE",
"335 215 OFFCURVE",
"335 206 CURVE SMOOTH",
"335 133 OFFCURVE",
"313 67 OFFCURVE",
"238 67 CURVE SMOOTH",
"175 67 OFFCURVE",
"151 93 OFFCURVE",
"151 146 CURVE SMOOTH",
"151 236 OFFCURVE",
"205 273 OFFCURVE",
"205 404 CURVE SMOOTH",
"205 419 OFFCURVE",
"203 436 OFFCURVE",
"199 454 CURVE",
"342 458 OFFCURVE",
"368 552 OFFCURVE",
"368 602 CURVE SMOOTH",
"368 678 OFFCURVE",
"322 725 OFFCURVE",
"235 725 CURVE SMOOTH",
"128 725 OFFCURVE",
"85 660 OFFCURVE",
"85 597 CURVE SMOOTH",
"85 539 OFFCURVE",
"114 474 OFFCURVE",
"114 403 CURVE SMOOTH",
"114 262 OFFCURVE",
"59 239 OFFCURVE",
"59 145 CURVE SMOOTH",
"59 53 OFFCURVE",
"98 -11 OFFCURVE",
"235 -11 CURVE SMOOTH"
);
},
{
closed = 1;
nodes = (
"183 552 OFFCURVE",
"178 574 OFFCURVE",
"178 596 CURVE SMOOTH",
"178 615 OFFCURVE",
"190 647 OFFCURVE",
"232 647 CURVE SMOOTH",
"258 647 OFFCURVE",
"278 634 OFFCURVE",
"278 601 CURVE SMOOTH",
"278 536 OFFCURVE",
"225 531 OFFCURVE",
"186 531 CURVE"
);
}
);
width = 462;
}
);
unicode = 104A5;
},
{
glyphname = u104A6;
lastChange = "2017-01-13 22:31:24 +0000";
layers = (
{
layerId = UUID0;
paths = (
{
closed = 1;
nodes = (
"277 -1 OFFCURVE",
"333 100 OFFCURVE",
"348 250 CURVE SMOOTH",
"395 714 LINE",
"305 714 LINE",
"286 540 LINE SMOOTH",
"280 487 OFFCURVE",
"258 458 OFFCURVE",
"206 458 CURVE SMOOTH",
"152 458 OFFCURVE",
"141 492 OFFCURVE",
"141 530 CURVE SMOOTH",
"141 541 OFFCURVE",
"142 552 OFFCURVE",
"143 563 CURVE SMOOTH",
"158 714 LINE",
"68 714 LINE",
"50 540 LINE SMOOTH",
"49 530 OFFCURVE",
"49 521 OFFCURVE",
"49 513 CURVE SMOOTH",
"49 423 OFFCURVE",
"103 379 OFFCURVE",
"191 379 CURVE SMOOTH",
"215 379 OFFCURVE",
"249 386 OFFCURVE",
"272 398 CURVE",
"258 256 LINE SMOOTH",
"244 118 OFFCURVE",
"203 75 OFFCURVE",
"86 54 CURVE",
"100 -24 LINE"
);
}
);
width = 453;
}
);
unicode = 104A6;
},
{
glyphname = u104A7;
lastChange = "2017-01-13 22:31:24 +0000";
layers = (
{
layerId = UUID0;
paths = (
{
closed = 1;
nodes = (
"412 -11 OFFCURVE",
"449 239 OFFCURVE",
"449 382 CURVE SMOOTH",
"449 555 OFFCURVE",
"386 725 OFFCURVE",
"206 725 CURVE SMOOTH",
"153 725 OFFCURVE",
"135 721 OFFCURVE",
"110 716 CURVE",
"126 642 LINE",
"151 646 OFFCURVE",
"175 646 OFFCURVE",
"197 646 CURVE SMOOTH",
"320 646 OFFCURVE",
"354 510 OFFCURVE",
"354 379 CURVE SMOOTH",
"354 157 OFFCURVE",
"275 67 OFFCURVE",
"187 67 CURVE SMOOTH",
"129 67 OFFCURVE",
"88 80 OFFCURVE",
"60 109 CURVE",
"10 47 LINE",
"50 5 OFFCURVE",
"109 -11 OFFCURVE",
"177 -11 CURVE SMOOTH"
);
}
);
width = 513;
}
);
unicode = 104A7;
},
{
glyphname = u104A8;
lastChange = "2017-01-13 22:31:24 +0000";
layers = (
{
layerId = UUID0;
paths = (
{
closed = 1;
nodes = (
"330 -11 OFFCURVE",
"391 5 OFFCURVE",
"439 45 CURVE",
"403 111 LINE",
"370 82 OFFCURVE",
"326 67 OFFCURVE",
"269 67 CURVE SMOOTH",
"198 67 OFFCURVE",
"148 120 OFFCURVE",
"148 249 CURVE SMOOTH",
"148 396 OFFCURVE",
"211 646 OFFCURVE",
"360 646 CURVE SMOOTH",
"409 646 OFFCURVE",
"425 646 OFFCURVE",
"443 642 CURVE",
"474 716 LINE",
"439 724 OFFCURVE",
"407 725 OFFCURVE",
"369 725 CURVE SMOOTH",
"162 725 OFFCURVE",
"54 455 OFFCURVE",
"54 249 CURVE SMOOTH",
"54 123 OFFCURVE",
"88 -11 OFFCURVE",
"263 -11 CURVE SMOOTH"
);
}
);
width = 503;
}
);
unicode = 104A8;
},
{
glyphname = u104A9;
lastChange = "2017-01-13 22:31:24 +0000";
layers = (
{
layerId = UUID0;
paths = (
{
closed = 1;
nodes = (
"438 -11 OFFCURVE",
"481 104 OFFCURVE",
"496 252 CURVE SMOOTH",
"544 714 LINE",
"455 714 LINE",
"407 252 LINE SMOOTH",
"396 144 OFFCURVE",
"372 67 OFFCURVE",
"262 67 CURVE SMOOTH",
"176 67 OFFCURVE",
"150 112 OFFCURVE",
"150 192 CURVE SMOOTH",
"150 210 OFFCURVE",
"151 230 OFFCURVE",
"153 251 CURVE SMOOTH",
"202 714 LINE",
"111 714 LINE",
"63 254 LINE SMOOTH",
"60 228 OFFCURVE",
"59 203 OFFCURVE",
"59 180 CURVE SMOOTH",
"59 63 OFFCURVE",
"100 -11 OFFCURVE",
"249 -11 CURVE SMOOTH"
);
}
);
width = 603;
}
);
unicode = 104A9;
},
